<svg width="266" height="265" viewBox="0 0 266 265" fill="none" xmlns="http://www.w3.org/2000/svg">
<rect y="24" width="237.686" height="233.447" rx="36" fill="#FDFDFD"/>
<path d="M52.4475 119.278C45.0983 119.278 39.2271 117.597 34.8339 114.234C30.4678 110.871 28.1898 105.922 28 99.3865H40.4068C40.6237 102.424 41.817 104.715 43.9865 106.261C46.1831 107.78 48.9492 108.539 52.2848 108.539C55.539 108.539 58.1424 107.847 60.0949 106.464C62.0746 105.081 63.0644 103.278 63.0644 101.054C63.0644 99.0204 62.1695 97.4611 60.3797 96.3763C58.5899 95.2644 56.0407 94.3153 52.7322 93.5288L46.1017 91.9017C41.0034 90.6814 36.9763 88.7424 34.0203 86.0848C31.0915 83.4 29.6271 79.8204 29.6271 75.3458C29.6271 71.6848 30.617 68.4848 32.5966 65.7458C34.5763 62.9797 37.2881 60.8373 40.7322 59.3186C44.2034 57.7729 48.1492 57 52.5695 57C57.0712 57 61.0034 57.7729 64.3661 59.3186C67.7288 60.8644 70.3458 63.0068 72.217 65.7458C74.1153 68.4848 75.0916 71.6441 75.1458 75.2237H62.7797C62.5627 72.8644 61.5593 71.0204 59.7695 69.6915C57.9797 68.3627 55.5526 67.6983 52.4882 67.6983C49.3695 67.6983 46.9695 68.3492 45.2881 69.6509C43.6068 70.9254 42.7661 72.5526 42.7661 74.5322C42.7661 76.6746 43.7017 78.3017 45.5729 79.4136C47.4441 80.4983 49.6949 81.3526 52.3254 81.9763L57.7356 83.3187C61.261 84.1051 64.3932 85.2576 67.1322 86.7763C69.8712 88.2678 72.0272 90.1932 73.6 92.5526C75.1729 94.8848 75.9594 97.7322 75.9594 101.095C75.9594 106.654 73.8848 111.075 69.7356 114.356C65.5865 117.637 59.8238 119.278 52.4475 119.278Z" fill="#FFCC00"/>
<path d="M98.9252 57.834V118.444H86.1523V57.834H98.9252Z" fill="#FFCC00"/>
<path d="M28 199.001V138.391H51.8373C56.4475 138.391 60.3661 139.272 63.5933 141.035C66.8475 142.797 69.3289 145.225 71.0373 148.316C72.7458 151.408 73.6 154.96 73.6 158.974C73.6 162.987 72.7322 166.526 70.9966 169.591C69.2611 172.655 66.7526 175.055 63.4712 176.791C60.1899 178.499 56.217 179.353 51.5526 179.353H40.7729V199.001H28ZM40.7729 169.103H49.4373C53.1526 169.103 55.9051 168.167 57.6949 166.296C59.5119 164.397 60.4204 161.957 60.4204 158.974C60.4204 155.936 59.5119 153.496 57.6949 151.652C55.878 149.808 53.1119 148.886 49.3966 148.886H40.7729V169.103Z" fill="#FFCC00"/>
<path d="M83.793 148.967V138.391H133.542V148.967H115.074V199.001H102.301V148.967H83.793Z" fill="#FFCC00"/>
<path d="M143.734 199.001V138.391H156.507V163.408H182.501V138.391H195.314V199.001H182.501V173.943H156.507V199.001H143.734Z" fill="#FFCC00"/>
<g clip-path="url(#clip0_7066_595)">
<path d="M206.706 197.341C206.708 199.906 204.006 201.573 201.714 200.42L185.116 192.071C182.708 190.859 182.561 187.477 184.855 186.062L201.44 175.832C203.734 174.417 206.691 176.066 206.693 178.761L206.706 197.341Z" fill="#3F0053"/>
<rect x="202.227" y="186.123" width="2.29634" height="11.4012" rx="1.14817" transform="rotate(3.45393 202.227 186.123)" fill="#FFCC00"/>
<path d="M135.631 113.108L158.029 99.2908L166.886 113.649L163.604 124.395L173.795 124.848L181.234 136.909L177.598 147.081L187.966 147.821L193.811 157.297L188.935 165.459L200.365 167.922L206.211 177.398L183.812 191.215L135.631 113.108Z" fill="#3F0053"/>
<rect x="204.068" y="196.471" width="2.29634" height="66.5938" rx="1.14817" transform="rotate(148.331 204.068 196.471)" fill="#FFCC00"/>
<rect x="199.354" y="169.141" width="2.29634" height="10.3335" rx="1.14817" transform="rotate(103.326 199.354 169.141)" fill="#FFCC00"/>
<rect x="188.16" y="148.807" width="2.29634" height="10.3335" rx="1.14817" transform="rotate(94.9618 188.16 148.807)" fill="#FFCC00"/>
<rect x="173.67" y="125.316" width="2.29634" height="10.3335" rx="1.14817" transform="rotate(93.133 173.67 125.316)" fill="#FFCC00"/>
<path d="M112.493 102.696C120.718 116.029 138.194 120.17 151.527 111.945C164.861 103.721 169.002 86.2446 160.777 72.9114C152.552 59.5782 135.076 55.437 121.743 63.6618C108.41 71.8865 104.269 89.3627 112.493 102.696ZM151.9 78.3876C157.1 86.8179 154.481 97.8677 146.051 103.068C137.621 108.268 126.571 105.65 121.371 97.2197C116.17 88.7894 118.789 77.7396 127.219 72.5392C135.649 67.3389 146.699 69.9573 151.9 78.3876Z" fill="#3F0053"/>
<path d="M131.643 90.6567C133.365 93.4495 137.026 94.3169 139.819 92.5941C142.611 90.8714 143.479 87.2108 141.756 84.4181C140.033 81.6253 136.373 80.7579 133.58 82.4806C130.787 84.2034 129.92 87.8639 131.643 90.6567ZM139.582 85.7589C140.565 87.3512 140.07 89.4383 138.478 90.4205C136.885 91.4027 134.798 90.9082 133.816 89.3159C132.834 87.7236 133.329 85.6365 134.921 84.6543C136.513 83.6721 138.6 84.1666 139.582 85.7589Z" fill="#3F0053"/>
<circle cx="2.10825" cy="2.10825" r="2.10825" transform="matrix(-0.851096 0.52501 0.52501 0.851096 137.387 84.6367)" fill="#FFCC00"/>
<path d="M140.482 95.567C140.456 94.6821 141.398 94.1012 142.177 94.5213L147.144 97.1995C147.924 97.6196 147.956 98.7256 147.202 99.1904L142.399 102.153C141.646 102.618 140.672 102.093 140.646 101.208L140.482 95.567Z" fill="#FFCC00"/>
<path d="M133.868 95.1874C134.475 94.5435 135.552 94.7987 135.806 95.6467L137.425 101.053C137.679 101.901 136.919 102.706 136.058 102.502L130.566 101.201C129.705 100.996 129.388 99.9364 129.995 99.2924L133.868 95.1874Z" fill="#FFCC00"/>
<path d="M150.496 86.8439C151.333 86.5543 152.169 87.2789 152.002 88.1481L150.934 93.6896C150.766 94.5588 149.721 94.9208 149.052 94.3411L144.786 90.6457C144.117 90.066 144.327 88.9795 145.163 88.6899L150.496 86.8439Z" fill="#FFCC00"/>
<path d="M139.537 79.8965C138.929 80.5405 137.852 80.2853 137.598 79.4373L135.98 74.031C135.726 73.183 136.485 72.3781 137.346 72.5822L142.838 73.8835C143.699 74.0876 144.017 75.1476 143.409 75.7915L139.537 79.8965Z" fill="#FFCC00"/>
<path d="M122.635 81.4852C122.787 80.6131 123.826 80.2327 124.505 80.8005L128.835 84.4201C129.514 84.9879 129.324 86.0779 128.493 86.3822L123.193 88.3221C122.362 88.6264 121.513 87.9167 121.665 87.0446L122.635 81.4852Z" fill="#FFCC00"/>
<path d="M129.324 90.9194C130.208 90.8936 130.789 91.8354 130.369 92.6146L127.691 97.582C127.271 98.3612 126.165 98.3934 125.7 97.64L122.737 92.8369C122.273 92.0835 122.798 91.1095 123.683 91.0837L129.324 90.9194Z" fill="#FFCC00"/>
<path d="M133.12 79.8412C133.145 80.7261 132.204 81.307 131.424 80.8869L126.457 78.2087C125.678 77.7886 125.646 76.6826 126.399 76.2178L131.202 73.255C131.956 72.7902 132.93 73.3153 132.955 74.2002L133.12 79.8412Z" fill="#FFCC00"/>
<path d="M144.071 84.1627C143.186 84.1884 142.605 83.2467 143.025 82.4675L145.703 77.5C146.123 76.7208 147.23 76.6886 147.694 77.442L150.657 82.2451C151.122 82.9985 150.597 83.9725 149.712 83.9983L144.071 84.1627Z" fill="#FFCC00"/>
<path d="M117.173 103.425C117.173 103.425 113.719 97.6465 112.879 91.8222C112.038 85.998 113.358 81.1013 113.358 81.1013" stroke="white" stroke-width="2.41409" stroke-linecap="round"/>
<path d="M158.09 79.0047C158.09 79.0047 160.201 85.3383 159.744 91.2052C159.287 97.0721 156.916 101.622 156.916 101.622" stroke="white" stroke-width="2.41409" stroke-linecap="round"/>
<path d="M114.428 78.2793L114.554 78.0234" stroke="white" stroke-width="2.41409" stroke-linecap="round"/>
<path d="M162.601 99.0103C163.436 99.3722 164.411 98.9899 164.726 98.1361C166.441 93.4869 166.969 88.4732 166.248 83.5528C165.446 78.088 163.137 72.9549 159.579 68.7306C156.02 64.5063 151.354 61.3583 146.105 59.6404C141.378 58.0937 136.348 57.7616 131.475 58.6621C130.58 58.8275 130.038 59.7233 130.253 60.6077V60.6077C130.467 61.4921 131.358 62.0295 132.254 61.8704C136.53 61.1108 140.936 61.4167 145.08 62.7727C149.746 64.2999 153.895 67.0985 157.058 70.8539C160.221 74.6092 162.274 79.1726 162.987 84.0308C163.619 88.3445 163.172 92.7388 161.697 96.8235C161.388 97.6795 161.766 98.6484 162.601 99.0103V99.0103Z" fill="#FFCC00"/>
</g>
<path d="M31.3882 218.126C30.3051 218.126 29.4399 217.878 28.7924 217.383C28.149 216.887 27.8133 216.158 27.7853 215.194H29.6137C29.6457 215.642 29.8215 215.98 30.1413 216.208C30.465 216.431 30.8726 216.543 31.3642 216.543C31.8438 216.543 32.2274 216.441 32.5152 216.238C32.8069 216.034 32.9528 215.768 32.9528 215.44C32.9528 215.141 32.8209 214.911 32.5571 214.751C32.2934 214.587 31.9177 214.447 31.4301 214.331L30.453 214.091C29.7016 213.912 29.1082 213.626 28.6725 213.234C28.2409 212.839 28.0251 212.311 28.0251 211.652C28.0251 211.112 28.171 210.64 28.4627 210.237C28.7545 209.829 29.1541 209.513 29.6617 209.29C30.1732 209.062 30.7547 208.948 31.4061 208.948C32.0696 208.948 32.649 209.062 33.1446 209.29C33.6402 209.517 34.0258 209.833 34.3016 210.237C34.5814 210.64 34.7252 211.106 34.7332 211.634H32.9108C32.8788 211.286 32.731 211.014 32.4672 210.818C32.2034 210.622 31.8458 210.525 31.3942 210.525C30.9346 210.525 30.5809 210.62 30.3331 210.812C30.0853 211 29.9614 211.24 29.9614 211.532C29.9614 211.847 30.0993 212.087 30.375 212.251C30.6508 212.411 30.9825 212.537 31.3702 212.629L32.1675 212.827C32.687 212.942 33.1486 213.112 33.5523 213.336C33.9559 213.556 34.2736 213.84 34.5054 214.187C34.7372 214.531 34.8531 214.951 34.8531 215.446C34.8531 216.266 34.5474 216.917 33.9359 217.401C33.3245 217.884 32.4752 218.126 31.3882 218.126ZM36.088 218V211.298H37.9464V218H36.088ZM37.0172 210.441C36.7415 210.441 36.5037 210.349 36.3038 210.165C36.108 209.981 36.0101 209.759 36.0101 209.499C36.0101 209.24 36.108 209.02 36.3038 208.84C36.5037 208.656 36.7415 208.564 37.0172 208.564C37.293 208.564 37.5288 208.656 37.7246 208.84C37.9244 209.02 38.0243 209.24 38.0243 209.499C38.0243 209.759 37.9244 209.981 37.7246 210.165C37.5288 210.349 37.293 210.441 37.0172 210.441ZM44.9962 213.21L43.3057 213.312C43.2577 213.1 43.1378 212.918 42.946 212.767C42.7582 212.611 42.5024 212.533 42.1787 212.533C41.8909 212.533 41.6492 212.593 41.4533 212.713C41.2575 212.833 41.1596 212.992 41.1596 213.192C41.1596 213.352 41.2235 213.488 41.3514 213.6C41.4793 213.712 41.6971 213.802 42.0048 213.87L43.2218 214.109C44.5086 214.365 45.1521 214.969 45.1521 215.92C45.1521 216.363 45.0242 216.751 44.7684 217.083C44.5126 217.415 44.1609 217.672 43.7133 217.856C43.2657 218.04 42.7522 218.132 42.1727 218.132C41.2855 218.132 40.5801 217.948 40.0566 217.58C39.533 217.209 39.2253 216.703 39.1334 216.064L40.9558 215.968C41.0797 216.519 41.4873 216.795 42.1787 216.795C42.5024 216.795 42.7642 216.731 42.964 216.603C43.1638 216.475 43.2637 216.313 43.2637 216.118C43.2637 215.786 42.978 215.562 42.4065 215.446L41.2495 215.206C39.9586 214.947 39.3132 214.311 39.3132 213.3C39.3132 212.653 39.571 212.143 40.0865 211.771C40.6061 211.4 41.2935 211.214 42.1487 211.214C42.996 211.214 43.6634 211.394 44.151 211.753C44.6385 212.109 44.9203 212.595 44.9962 213.21ZM49.8879 211.298V212.701H48.617V215.938C48.617 216.373 48.8289 216.591 49.2525 216.591C49.3244 216.591 49.4023 216.585 49.4863 216.573C49.5742 216.561 49.6501 216.547 49.7141 216.531L50.0078 217.922C49.6122 218.038 49.2285 218.096 48.8568 218.096C48.1934 218.096 47.6779 217.928 47.3102 217.592C46.9465 217.257 46.7647 216.787 46.7647 216.184V212.701H45.8535V211.298H46.7647V209.703H48.617V211.298H49.8879ZM54.1502 218.132C53.4628 218.132 52.8713 217.992 52.3757 217.712C51.8802 217.432 51.4985 217.035 51.2307 216.519C50.963 216 50.8291 215.386 50.8291 214.679C50.8291 213.992 50.961 213.388 51.2247 212.869C51.4925 212.349 51.8682 211.943 52.3518 211.652C52.8353 211.36 53.4048 211.214 54.0603 211.214C54.6517 211.214 55.1853 211.34 55.6609 211.592C56.1404 211.843 56.5201 212.221 56.7999 212.725C57.0836 213.228 57.2255 213.86 57.2255 214.619V215.123H52.6575C52.6775 215.63 52.8253 216.028 53.1011 216.315C53.3769 216.603 53.7365 216.747 54.1802 216.747C54.4879 216.747 54.7517 216.681 54.9715 216.549C55.1953 216.417 55.3551 216.226 55.451 215.974L57.1655 216.088C57.0337 216.703 56.7039 217.199 56.1764 217.574C55.6529 217.946 54.9775 218.132 54.1502 218.132ZM52.6695 213.978H55.445C55.4011 213.554 55.2652 213.218 55.0374 212.97C54.8096 212.723 54.4899 212.599 54.0782 212.599C53.6626 212.599 53.3329 212.729 53.0891 212.988C52.8493 213.244 52.7094 213.574 52.6695 213.978ZM58.4484 218V211.298H60.2109V212.491H60.2948C60.4347 212.095 60.6685 211.783 60.9962 211.556C61.3239 211.328 61.7135 211.214 62.1652 211.214C62.6247 211.214 63.0144 211.33 63.3341 211.562C63.6578 211.789 63.8717 212.099 63.9756 212.491H64.0475C64.1874 212.103 64.4352 211.793 64.7908 211.562C65.1505 211.33 65.5762 211.214 66.0677 211.214C66.6912 211.214 67.1987 211.412 67.5904 211.807C67.986 212.203 68.1839 212.765 68.1839 213.492V218H66.3255V213.864C66.3255 213.488 66.2256 213.208 66.0258 213.024C65.8299 212.841 65.5842 212.749 65.2884 212.749C64.9527 212.749 64.6889 212.857 64.4971 213.072C64.3093 213.284 64.2154 213.564 64.2154 213.912V218H62.4109V213.816C62.4109 213.492 62.317 213.234 62.1292 213.042C61.9453 212.847 61.7016 212.749 61.3978 212.749C61.0861 212.749 60.8263 212.863 60.6185 213.09C60.4107 213.314 60.3068 213.612 60.3068 213.984V218H58.4484ZM72.56 218V209.068H76.0729C76.7523 209.068 77.3298 209.198 77.8054 209.457C78.285 209.717 78.6507 210.075 78.9025 210.531C79.1542 210.986 79.2801 211.51 79.2801 212.101C79.2801 212.693 79.1522 213.214 78.8965 213.666C78.6407 214.117 78.271 214.471 77.7874 214.727C77.3039 214.979 76.7184 215.105 76.031 215.105H74.4424V218H72.56ZM74.4424 213.594H75.7193C76.2668 213.594 76.6724 213.456 76.9362 213.18C77.204 212.9 77.3378 212.541 77.3378 212.101C77.3378 211.654 77.204 211.294 76.9362 211.022C76.6684 210.75 76.2608 210.614 75.7133 210.614H74.4424V213.594ZM82.3854 218.126C81.746 218.126 81.2144 217.96 80.7908 217.628C80.3712 217.293 80.1614 216.793 80.1614 216.13C80.1614 215.63 80.2773 215.238 80.5091 214.955C80.7448 214.667 81.0546 214.457 81.4382 214.325C81.8219 214.189 82.2335 214.101 82.6732 214.061C83.2566 214.006 83.6723 213.948 83.9201 213.888C84.1718 213.824 84.2977 213.684 84.2977 213.468V213.438C84.2977 213.162 84.2098 212.948 84.034 212.797C83.8581 212.645 83.6043 212.569 83.2726 212.569C82.9409 212.569 82.6692 212.641 82.4573 212.785C82.2495 212.928 82.1117 213.112 82.0437 213.336L80.3532 213.066C80.5131 212.483 80.8488 212.029 81.3603 211.706C81.8759 211.378 82.5153 211.214 83.2786 211.214C83.7742 211.214 84.2398 211.292 84.6754 211.448C85.115 211.604 85.4707 211.849 85.7425 212.185C86.0142 212.517 86.1501 212.948 86.1501 213.48V218H84.3936V217.065H84.3397C84.1758 217.381 83.9321 217.636 83.6083 217.832C83.2886 218.028 82.881 218.126 82.3854 218.126ZM81.9298 216.07C81.9298 216.325 82.0217 216.519 82.2056 216.651C82.3934 216.779 82.6292 216.843 82.9129 216.843C83.3206 216.843 83.6543 216.725 83.9141 216.489C84.1778 216.254 84.3097 215.96 84.3097 215.608V214.895C84.2378 214.943 84.1239 214.987 83.968 215.027C83.8162 215.067 83.6543 215.101 83.4824 215.129C83.3106 215.152 83.1567 215.174 83.0209 215.194C82.6931 215.242 82.4294 215.336 82.2295 215.476C82.0297 215.612 81.9298 215.81 81.9298 216.07ZM87.6428 218V211.298H89.4412V212.473H89.5132C89.633 212.057 89.8369 211.743 90.1246 211.532C90.4124 211.316 90.7441 211.208 91.1197 211.208C91.2117 211.208 91.3116 211.214 91.4195 211.226C91.5274 211.238 91.6213 211.254 91.7012 211.274V212.916C91.6133 212.888 91.4914 212.867 91.3356 212.851C91.1837 212.831 91.0438 212.821 90.9159 212.821C90.5083 212.821 90.1706 212.95 89.9028 213.21C89.635 213.466 89.5012 213.8 89.5012 214.211V218H87.6428ZM92.6664 209.068H94.5248V213.846H94.6267L96.7668 211.298H98.9009L96.4191 214.205L99.0208 218H96.8507L95.0283 215.296L94.5248 215.866V218H92.6664V209.068ZM99.8121 218V211.298H101.67V218H99.8121ZM100.741 210.441C100.466 210.441 100.228 210.349 100.028 210.165C99.8321 209.981 99.7342 209.759 99.7342 209.499C99.7342 209.24 99.8321 209.02 100.028 208.84C100.228 208.656 100.466 208.564 100.741 208.564C101.017 208.564 101.253 208.656 101.449 208.84C101.649 209.02 101.748 209.24 101.748 209.499C101.748 209.759 101.649 209.981 101.449 210.165C101.253 210.349 101.017 210.441 100.741 210.441ZM103.157 218V211.298H104.956V212.473H105.028C105.147 212.057 105.351 211.743 105.639 211.532C105.927 211.316 106.258 211.208 106.634 211.208C106.726 211.208 106.826 211.214 106.934 211.226C107.042 211.238 107.136 211.254 107.216 211.274V212.916C107.128 212.888 107.006 212.867 106.85 212.851C106.698 212.831 106.558 212.821 106.43 212.821C106.023 212.821 105.685 212.95 105.417 213.21C105.149 213.466 105.016 213.8 105.016 214.211V218H103.157ZM116.585 209.068H118.468V214.859C118.468 215.51 118.314 216.082 118.006 216.573C117.698 217.061 117.267 217.44 116.711 217.712C116.156 217.984 115.508 218.12 114.769 218.12C114.026 218.12 113.376 217.984 112.821 217.712C112.269 217.44 111.84 217.061 111.532 216.573C111.224 216.082 111.07 215.51 111.07 214.859V209.068H112.953V214.703C112.953 215.214 113.118 215.636 113.45 215.968C113.782 216.295 114.221 216.459 114.769 216.459C115.317 216.459 115.756 216.295 116.088 215.968C116.42 215.636 116.585 215.214 116.585 214.703V209.068ZM119.99 218V211.298H121.753V212.491H121.837C121.977 212.095 122.21 211.783 122.538 211.556C122.866 211.328 123.256 211.214 123.707 211.214C124.167 211.214 124.556 211.33 124.876 211.562C125.2 211.789 125.414 212.099 125.518 212.491H125.589C125.729 212.103 125.977 211.793 126.333 211.562C126.693 211.33 127.118 211.214 127.61 211.214C128.233 211.214 128.741 211.412 129.132 211.807C129.528 212.203 129.726 212.765 129.726 213.492V218H127.867V213.864C127.867 213.488 127.768 213.208 127.568 213.024C127.372 212.841 127.126 212.749 126.83 212.749C126.495 212.749 126.231 212.857 126.039 213.072C125.851 213.284 125.757 213.564 125.757 213.912V218H123.953V213.816C123.953 213.492 123.859 213.234 123.671 213.042C123.487 212.847 123.244 212.749 122.94 212.749C122.628 212.749 122.368 212.863 122.161 213.09C121.953 213.314 121.849 213.612 121.849 213.984V218H119.99ZM133.125 218.126C132.485 218.126 131.954 217.96 131.53 217.628C131.111 217.293 130.901 216.793 130.901 216.13C130.901 215.63 131.017 215.238 131.249 214.955C131.484 214.667 131.794 214.457 132.178 214.325C132.561 214.189 132.973 214.101 133.413 214.061C133.996 214.006 134.412 213.948 134.66 213.888C134.911 213.824 135.037 213.684 135.037 213.468V213.438C135.037 213.162 134.949 212.948 134.773 212.797C134.598 212.645 134.344 212.569 134.012 212.569C133.68 212.569 133.409 212.641 133.197 212.785C132.989 212.928 132.851 213.112 132.783 213.336L131.093 213.066C131.253 212.483 131.588 212.029 132.1 211.706C132.615 211.378 133.255 211.214 134.018 211.214C134.514 211.214 134.979 211.292 135.415 211.448C135.854 211.604 136.21 211.849 136.482 212.185C136.754 212.517 136.89 212.948 136.89 213.48V218H135.133V217.065H135.079C134.915 217.381 134.672 217.636 134.348 217.832C134.028 218.028 133.62 218.126 133.125 218.126ZM132.669 216.07C132.669 216.325 132.761 216.519 132.945 216.651C133.133 216.779 133.369 216.843 133.652 216.843C134.06 216.843 134.394 216.725 134.654 216.489C134.917 216.254 135.049 215.96 135.049 215.608V214.895C134.977 214.943 134.863 214.987 134.707 215.027C134.556 215.067 134.394 215.101 134.222 215.129C134.05 215.152 133.896 215.174 133.76 215.194C133.433 215.242 133.169 215.336 132.969 215.476C132.769 215.612 132.669 215.81 132.669 216.07ZM141.943 211.298V212.701H140.672V215.938C140.672 216.373 140.884 216.591 141.308 216.591C141.38 216.591 141.458 216.585 141.541 216.573C141.629 216.561 141.705 216.547 141.769 216.531L142.063 217.922C141.667 218.038 141.284 218.096 140.912 218.096C140.249 218.096 139.733 217.928 139.365 217.592C139.002 217.257 138.82 216.787 138.82 216.184V212.701H137.909V211.298H138.82V209.703H140.672V211.298H141.943ZM146.044 218V209.068H147.926V212.755H151.757V209.068H153.645V218H151.757V214.307H147.926V218H146.044ZM155.204 209.068H157.529L159.987 215.069H160.089L162.553 209.068H164.897V218H163.045V212.185H162.979L160.659 217.958H159.406L157.11 212.173H157.032V218H155.204V209.068ZM166.108 210.626V209.068H173.44V210.626H170.718V218H168.836V210.626H166.108ZM174.662 218V209.068H178.235C179.218 209.068 179.958 209.284 180.453 209.715C180.949 210.143 181.197 210.69 181.197 211.358C181.197 211.881 181.043 212.307 180.735 212.635C180.431 212.958 180.048 213.172 179.584 213.276V213.366C179.924 213.382 180.242 213.478 180.537 213.654C180.837 213.83 181.079 214.077 181.263 214.397C181.45 214.713 181.544 215.091 181.544 215.53C181.544 216.002 181.428 216.425 181.197 216.801C180.965 217.173 180.621 217.466 180.166 217.682C179.71 217.894 179.146 218 178.475 218H174.662ZM177.948 212.809C178.331 212.809 178.651 212.707 178.907 212.503C179.162 212.299 179.29 212.021 179.29 211.67C179.29 211.35 179.176 211.092 178.949 210.896C178.721 210.696 178.399 210.596 177.984 210.596H176.545V212.809H177.948ZM178.085 216.459C178.613 216.459 178.997 216.357 179.236 216.154C179.48 215.95 179.602 215.68 179.602 215.344C179.602 214.977 179.47 214.675 179.206 214.439C178.943 214.199 178.585 214.079 178.133 214.079H176.545V216.459H178.085Z" fill="#FFCC00"/>
<defs>
<clipPath id="clip0_7066_595">
<rect width="74.631" height="265.338" fill="white" transform="translate(63 39.1816) rotate(-31.6689)"/>
</clipPath>
</defs>
</svg>
