<svg width="710" height="232" viewBox="0 0 710 232" fill="none" xmlns="http://www.w3.org/2000/svg">
<path d="M89.6875 157.361C78.3958 157.361 69.375 154.778 62.625 149.611C55.9167 144.445 52.4167 136.84 52.125 126.799H71.1875C71.5208 131.465 73.3542 134.986 76.6875 137.361C80.0625 139.695 84.3125 140.861 89.4375 140.861C94.4375 140.861 98.4375 139.799 101.438 137.674C104.479 135.549 106 132.778 106 129.361C106 126.236 104.625 123.84 101.875 122.174C99.125 120.465 95.2083 119.007 90.125 117.799L79.9375 115.299C72.1042 113.424 65.9167 110.445 61.375 106.361C56.875 102.236 54.625 96.7363 54.625 89.8613C54.625 84.2363 56.1458 79.3197 59.1875 75.1113C62.2292 70.8613 66.3958 67.5697 71.6875 65.2363C77.0208 62.8613 83.0833 61.6738 89.875 61.6738C96.7917 61.6738 102.833 62.8613 108 65.2363C113.167 67.6113 117.188 70.903 120.062 75.1113C122.979 79.3197 124.479 84.1738 124.562 89.6738H105.562C105.229 86.0488 103.688 83.2155 100.938 81.1738C98.1875 79.1322 94.4583 78.1113 89.75 78.1113C84.9583 78.1113 81.2708 79.1113 78.6875 81.1113C76.1042 83.0697 74.8125 85.5697 74.8125 88.6113C74.8125 91.903 76.25 94.403 79.125 96.1113C82 97.778 85.4583 99.0905 89.5 100.049L97.8125 102.111C103.229 103.32 108.042 105.09 112.25 107.424C116.458 109.715 119.771 112.674 122.188 116.299C124.604 119.882 125.812 124.257 125.812 129.424C125.812 137.965 122.625 144.757 116.25 149.799C109.875 154.84 101.021 157.361 89.6875 157.361Z" fill="#FFCC00"/>
<path d="M166.205 182.948C165.033 184.85 162.268 184.85 161.096 182.948L152.61 169.169C151.379 167.17 152.817 164.596 155.165 164.596H172.136C174.483 164.596 175.921 167.17 174.69 169.169L166.205 182.948Z" fill="#3F0053"/>
<rect x="168.014" y="172.584" width="2" height="9.92991" rx="1" transform="rotate(35.1228 168.014 172.584)" fill="#FFCC00"/>
<path d="M152.034 88.0077H174.955V102.701L167.609 109.166L174.955 114.161V126.503L167.609 132.38L174.955 137.67V147.367L167.609 151.187L174.955 158.24V167.938H152.034L152.034 88.0077Z" fill="#3F0053"/>
<rect x="164.648" y="181.096" width="2" height="58" rx="1" transform="rotate(-180 164.648 181.096)" fill="#FFCC00"/>
<rect x="173.648" y="158.682" width="2" height="9" rx="1" transform="rotate(134.995 173.648 158.682)" fill="#FFCC00"/>
<rect x="174.648" y="138.49" width="2" height="9" rx="1" transform="rotate(126.631 174.648 138.49)" fill="#FFCC00"/>
<rect x="174.648" y="114.453" width="2" height="9" rx="1" transform="rotate(124.802 174.648 114.453)" fill="#FFCC00"/>
<path d="M139.646 69.7109C139.646 83.3552 150.707 94.416 164.352 94.416C177.996 94.416 189.057 83.3552 189.057 69.7109C189.057 56.0667 177.996 45.0059 164.352 45.0059C150.707 45.0059 139.646 56.0667 139.646 69.7109ZM179.972 69.7109C179.972 78.3379 172.979 85.3315 164.352 85.3315C155.725 85.3315 148.731 78.3379 148.731 69.7109C148.731 61.084 155.725 54.0904 164.352 54.0904C172.979 54.0904 179.972 61.084 179.972 69.7109Z" fill="#3F0053"/>
<path d="M159.344 69.5439C159.344 72.4018 161.661 74.7186 164.519 74.7186C167.377 74.7186 169.693 72.4018 169.693 69.5439C169.693 66.6859 167.377 64.3691 164.519 64.3691C161.661 64.3691 159.344 66.6859 159.344 69.5439ZM167.469 69.5439C167.469 71.1733 166.148 72.4942 164.519 72.4942C162.889 72.4942 161.568 71.1733 161.568 69.5439C161.568 67.9144 162.889 66.5935 164.519 66.5935C166.148 66.5935 167.469 67.9144 167.469 69.5439Z" fill="#3F0053"/>
<circle cx="1.83619" cy="1.83619" r="1.83619" transform="matrix(-1 0 0 1 166.355 67.707)" fill="#FFCC00"/>
<path d="M163.651 77.223C164.037 76.5553 165 76.5553 165.386 77.223L167.844 81.4797C168.229 82.1474 167.747 82.982 166.976 82.982H162.061C161.29 82.982 160.808 82.1474 161.194 81.4797L163.651 77.223Z" fill="#FFCC00"/>
<path d="M158.923 73.9169C159.668 73.7174 160.349 74.3988 160.15 75.1436L158.878 79.8912C158.678 80.6359 157.747 80.8854 157.202 80.3402L153.727 76.8647C153.181 76.3195 153.431 75.3886 154.176 75.189L158.923 73.9169Z" fill="#FFCC00"/>
<path d="M175.065 75.3387C175.818 75.5065 176.106 76.4261 175.585 76.9938L172.259 80.6133C171.738 81.181 170.797 80.9712 170.566 80.2356L169.094 75.546C168.863 74.8104 169.515 74.1007 170.268 74.2685L175.065 75.3387Z" fill="#FFCC00"/>
<path d="M170.118 65.1749C169.373 65.3744 168.692 64.693 168.891 63.9482L170.163 59.2006C170.363 58.4559 171.294 58.2064 171.839 58.7516L175.314 62.2271C175.86 62.7723 175.61 63.7032 174.866 63.9028L170.118 65.1749Z" fill="#FFCC00"/>
<path d="M156.863 58.6238C157.375 58.047 158.319 58.2402 158.563 58.9716L160.117 63.6344C160.361 64.3659 159.722 65.087 158.966 64.9324L154.151 63.9471C153.395 63.7926 153.091 62.8783 153.602 62.3014L156.863 58.6238Z" fill="#FFCC00"/>
<path d="M157.507 68.6766C158.175 69.0621 158.175 70.0259 157.507 70.4114L153.251 72.8689C152.583 73.2544 151.748 72.7725 151.748 72.0015V67.0864C151.748 66.3154 152.583 65.8336 153.251 66.2191L157.507 68.6766Z" fill="#FFCC00"/>
<path d="M165.386 62.1988C165 62.8665 164.037 62.8665 163.651 62.1988L161.194 57.9422C160.808 57.2745 161.29 56.4399 162.061 56.4399H166.976C167.747 56.4399 168.229 57.2745 167.843 57.9422L165.386 62.1988Z" fill="#FFCC00"/>
<path d="M171.53 70.4113C170.862 70.0258 170.862 69.062 171.53 68.6765L175.786 66.219C176.454 65.8335 177.289 66.3153 177.289 67.0863V72.0015C177.289 72.7725 176.454 73.2543 175.786 72.8688L171.53 70.4113Z" fill="#FFCC00"/>
<path d="M142.779 72.3898C142.779 72.3898 142.862 66.5271 144.902 61.8254C146.942 57.1237 150.159 54.0977 150.159 54.0977" stroke="white" stroke-width="2.10256" stroke-linecap="round"/>
<path d="M184.277 72.9988C184.277 72.9988 182.946 78.6589 179.925 82.7989C176.903 86.9389 173.065 89.2272 173.065 89.2272" stroke="white" stroke-width="2.10256" stroke-linecap="round"/>
<path d="M152.244 52.4961L152.455 52.3641" stroke="white" stroke-width="2.10256" stroke-linecap="round"/>
<path d="M178.474 89.8908C178.928 90.5408 179.825 90.7033 180.449 90.2144C183.846 87.5525 186.53 84.0771 188.245 80.1C190.15 75.6828 190.785 70.8218 190.079 66.0634C189.373 61.305 187.354 56.8379 184.248 53.1642C181.452 49.8566 177.875 47.3102 173.851 45.7495C173.112 45.4628 172.3 45.8789 172.055 46.6327V46.6327C171.81 47.3864 172.224 48.192 172.961 48.4838C176.478 49.8759 179.605 52.1175 182.056 55.0173C184.817 58.2832 186.612 62.2545 187.24 66.4847C187.868 70.715 187.303 75.0364 185.609 78.9633C184.106 82.45 181.765 85.5029 178.804 87.8563C178.183 88.3495 178.021 89.2407 178.474 89.8908V89.8908Z" fill="#FFCC00"/>
<path d="M206.188 156.049V62.9238H242.812C249.896 62.9238 255.917 64.278 260.875 66.9863C265.875 69.6947 269.688 73.4238 272.312 78.1738C274.938 82.9238 276.25 88.3822 276.25 94.5488C276.25 100.715 274.917 106.153 272.25 110.861C269.583 115.57 265.729 119.257 260.688 121.924C255.646 124.549 249.542 125.861 242.375 125.861H225.812V156.049H206.188ZM225.812 110.111H239.125C244.833 110.111 249.062 108.674 251.812 105.799C254.604 102.882 256 99.1322 256 94.5488C256 89.8822 254.604 86.1322 251.812 83.2988C249.021 80.4655 244.771 79.0488 239.062 79.0488H225.812V110.111Z" fill="#FFCC00"/>
<path d="M312.312 156.049H291.188L323.375 62.9238H348.688L380.812 156.049H359.75L352.812 134.799H319.188L312.312 156.049ZM324.188 119.424H347.812L336.375 84.1738H335.625L324.188 119.424Z" fill="#FFCC00"/>
<path d="M395.75 79.1738V62.9238H472.188V79.1738H443.812V156.049H424.188V79.1738H395.75Z" fill="#FFCC00"/>
<path d="M544.438 62.9238H564.062V123.299C564.062 130.09 562.458 136.049 559.25 141.174C556.042 146.257 551.542 150.215 545.75 153.049C539.958 155.882 533.208 157.299 525.5 157.299C517.75 157.299 510.979 155.882 505.188 153.049C499.438 150.215 494.958 146.257 491.75 141.174C488.542 136.049 486.938 130.09 486.938 123.299V62.9238H506.562V121.674C506.562 127.007 508.292 131.403 511.75 134.861C515.208 138.278 519.792 139.986 525.5 139.986C531.208 139.986 535.792 138.278 539.25 134.861C542.708 131.403 544.438 127.007 544.438 121.674V62.9238Z" fill="#FFCC00"/>
<path d="M578.875 156.049V62.9238H598.5V101.361H638.438V62.9238H658.125V156.049H638.438V117.549H598.5V156.049H578.875Z" fill="#FFCC00"/>
<path d="M364.578 189.246C362.461 189.246 360.77 188.762 359.504 187.793C358.246 186.824 357.59 185.398 357.535 183.516H361.109C361.172 184.391 361.516 185.051 362.141 185.496C362.773 185.934 363.57 186.152 364.531 186.152C365.469 186.152 366.219 185.953 366.781 185.555C367.352 185.156 367.637 184.637 367.637 183.996C367.637 183.41 367.379 182.961 366.863 182.648C366.348 182.328 365.613 182.055 364.66 181.828L362.75 181.359C361.281 181.008 360.121 180.449 359.27 179.684C358.426 178.91 358.004 177.879 358.004 176.59C358.004 175.535 358.289 174.613 358.859 173.824C359.43 173.027 360.211 172.41 361.203 171.973C362.203 171.527 363.34 171.305 364.613 171.305C365.91 171.305 367.043 171.527 368.012 171.973C368.98 172.418 369.734 173.035 370.273 173.824C370.82 174.613 371.102 175.523 371.117 176.555H367.555C367.492 175.875 367.203 175.344 366.688 174.961C366.172 174.578 365.473 174.387 364.59 174.387C363.691 174.387 363 174.574 362.516 174.949C362.031 175.316 361.789 175.785 361.789 176.355C361.789 176.973 362.059 177.441 362.598 177.762C363.137 178.074 363.785 178.32 364.543 178.5L366.102 178.887C367.117 179.113 368.02 179.445 368.809 179.883C369.598 180.312 370.219 180.867 370.672 181.547C371.125 182.219 371.352 183.039 371.352 184.008C371.352 185.609 370.754 186.883 369.559 187.828C368.363 188.773 366.703 189.246 364.578 189.246ZM373.766 189V175.898H377.398V189H373.766ZM375.582 174.223C375.043 174.223 374.578 174.043 374.188 173.684C373.805 173.324 373.613 172.891 373.613 172.383C373.613 171.875 373.805 171.445 374.188 171.094C374.578 170.734 375.043 170.555 375.582 170.555C376.121 170.555 376.582 170.734 376.965 171.094C377.355 171.445 377.551 171.875 377.551 172.383C377.551 172.891 377.355 173.324 376.965 173.684C376.582 174.043 376.121 174.223 375.582 174.223ZM391.18 179.637L387.875 179.836C387.781 179.422 387.547 179.066 387.172 178.77C386.805 178.465 386.305 178.312 385.672 178.312C385.109 178.312 384.637 178.43 384.254 178.664C383.871 178.898 383.68 179.211 383.68 179.602C383.68 179.914 383.805 180.18 384.055 180.398C384.305 180.617 384.73 180.793 385.332 180.926L387.711 181.395C390.227 181.895 391.484 183.074 391.484 184.934C391.484 185.801 391.234 186.559 390.734 187.207C390.234 187.855 389.547 188.359 388.672 188.719C387.797 189.078 386.793 189.258 385.66 189.258C383.926 189.258 382.547 188.898 381.523 188.18C380.5 187.453 379.898 186.465 379.719 185.215L383.281 185.027C383.523 186.105 384.32 186.645 385.672 186.645C386.305 186.645 386.816 186.52 387.207 186.27C387.598 186.02 387.793 185.703 387.793 185.32C387.793 184.672 387.234 184.234 386.117 184.008L383.855 183.539C381.332 183.031 380.07 181.789 380.07 179.812C380.07 178.547 380.574 177.551 381.582 176.824C382.598 176.098 383.941 175.734 385.613 175.734C387.27 175.734 388.574 176.086 389.527 176.789C390.48 177.484 391.031 178.434 391.18 179.637ZM400.742 175.898V178.641H398.258V184.969C398.258 185.82 398.672 186.246 399.5 186.246C399.641 186.246 399.793 186.234 399.957 186.211C400.129 186.188 400.277 186.16 400.402 186.129L400.977 188.848C400.203 189.074 399.453 189.188 398.727 189.188C397.43 189.188 396.422 188.859 395.703 188.203C394.992 187.547 394.637 186.629 394.637 185.449V178.641H392.855V175.898H394.637V172.781H398.258V175.898H400.742ZM409.074 189.258C407.73 189.258 406.574 188.984 405.605 188.438C404.637 187.891 403.891 187.113 403.367 186.105C402.844 185.09 402.582 183.891 402.582 182.508C402.582 181.164 402.84 179.984 403.355 178.969C403.879 177.953 404.613 177.16 405.559 176.59C406.504 176.02 407.617 175.734 408.898 175.734C410.055 175.734 411.098 175.98 412.027 176.473C412.965 176.965 413.707 177.703 414.254 178.688C414.809 179.672 415.086 180.906 415.086 182.391V183.375H406.156C406.195 184.367 406.484 185.145 407.023 185.707C407.562 186.27 408.266 186.551 409.133 186.551C409.734 186.551 410.25 186.422 410.68 186.164C411.117 185.906 411.43 185.531 411.617 185.039L414.969 185.262C414.711 186.465 414.066 187.434 413.035 188.168C412.012 188.895 410.691 189.258 409.074 189.258ZM406.18 181.137H411.605C411.52 180.309 411.254 179.652 410.809 179.168C410.363 178.684 409.738 178.441 408.934 178.441C408.121 178.441 407.477 178.695 407 179.203C406.531 179.703 406.258 180.348 406.18 181.137ZM417.477 189V175.898H420.922V178.23H421.086C421.359 177.457 421.816 176.848 422.457 176.402C423.098 175.957 423.859 175.734 424.742 175.734C425.641 175.734 426.402 175.961 427.027 176.414C427.66 176.859 428.078 177.465 428.281 178.23H428.422C428.695 177.473 429.18 176.867 429.875 176.414C430.578 175.961 431.41 175.734 432.371 175.734C433.59 175.734 434.582 176.121 435.348 176.895C436.121 177.668 436.508 178.766 436.508 180.188V189H432.875V180.914C432.875 180.18 432.68 179.633 432.289 179.273C431.906 178.914 431.426 178.734 430.848 178.734C430.191 178.734 429.676 178.945 429.301 179.367C428.934 179.781 428.75 180.328 428.75 181.008V189H425.223V180.82C425.223 180.188 425.039 179.684 424.672 179.309C424.312 178.926 423.836 178.734 423.242 178.734C422.633 178.734 422.125 178.957 421.719 179.402C421.312 179.84 421.109 180.422 421.109 181.148V189H417.477ZM445.062 189V171.539H451.93C453.258 171.539 454.387 171.793 455.316 172.301C456.254 172.809 456.969 173.508 457.461 174.398C457.953 175.289 458.199 176.312 458.199 177.469C458.199 178.625 457.949 179.645 457.449 180.527C456.949 181.41 456.227 182.102 455.281 182.602C454.336 183.094 453.191 183.34 451.848 183.34H448.742V189H445.062ZM448.742 180.387H451.238C452.309 180.387 453.102 180.117 453.617 179.578C454.141 179.031 454.402 178.328 454.402 177.469C454.402 176.594 454.141 175.891 453.617 175.359C453.094 174.828 452.297 174.562 451.227 174.562H448.742V180.387ZM464.27 189.246C463.02 189.246 461.98 188.922 461.152 188.273C460.332 187.617 459.922 186.641 459.922 185.344C459.922 184.367 460.148 183.602 460.602 183.047C461.062 182.484 461.668 182.074 462.418 181.816C463.168 181.551 463.973 181.379 464.832 181.301C465.973 181.191 466.785 181.078 467.27 180.961C467.762 180.836 468.008 180.562 468.008 180.141V180.082C468.008 179.543 467.836 179.125 467.492 178.828C467.148 178.531 466.652 178.383 466.004 178.383C465.355 178.383 464.824 178.523 464.41 178.805C464.004 179.086 463.734 179.445 463.602 179.883L460.297 179.355C460.609 178.215 461.266 177.328 462.266 176.695C463.273 176.055 464.523 175.734 466.016 175.734C466.984 175.734 467.895 175.887 468.746 176.191C469.605 176.496 470.301 176.977 470.832 177.633C471.363 178.281 471.629 179.125 471.629 180.164V189H468.195V187.172H468.09C467.77 187.789 467.293 188.289 466.66 188.672C466.035 189.055 465.238 189.246 464.27 189.246ZM463.379 185.227C463.379 185.727 463.559 186.105 463.918 186.363C464.285 186.613 464.746 186.738 465.301 186.738C466.098 186.738 466.75 186.508 467.258 186.047C467.773 185.586 468.031 185.012 468.031 184.324V182.93C467.891 183.023 467.668 183.109 467.363 183.188C467.066 183.266 466.75 183.332 466.414 183.387C466.078 183.434 465.777 183.477 465.512 183.516C464.871 183.609 464.355 183.793 463.965 184.066C463.574 184.332 463.379 184.719 463.379 185.227ZM474.547 189V175.898H478.062V178.195H478.203C478.438 177.383 478.836 176.77 479.398 176.355C479.961 175.934 480.609 175.723 481.344 175.723C481.523 175.723 481.719 175.734 481.93 175.758C482.141 175.781 482.324 175.812 482.48 175.852V179.062C482.309 179.008 482.07 178.965 481.766 178.934C481.469 178.895 481.195 178.875 480.945 178.875C480.148 178.875 479.488 179.129 478.965 179.637C478.441 180.137 478.18 180.789 478.18 181.594V189H474.547ZM484.367 171.539H488V180.879H488.199L492.383 175.898H496.555L491.703 181.582L496.789 189H492.547L488.984 183.715L488 184.828V189H484.367V171.539ZM498.336 189V175.898H501.969V189H498.336ZM500.152 174.223C499.613 174.223 499.148 174.043 498.758 173.684C498.375 173.324 498.184 172.891 498.184 172.383C498.184 171.875 498.375 171.445 498.758 171.094C499.148 170.734 499.613 170.555 500.152 170.555C500.691 170.555 501.152 170.734 501.535 171.094C501.926 171.445 502.121 171.875 502.121 172.383C502.121 172.891 501.926 173.324 501.535 173.684C501.152 174.043 500.691 174.223 500.152 174.223ZM504.875 189V175.898H508.391V178.195H508.531C508.766 177.383 509.164 176.77 509.727 176.355C510.289 175.934 510.938 175.723 511.672 175.723C511.852 175.723 512.047 175.734 512.258 175.758C512.469 175.781 512.652 175.812 512.809 175.852V179.062C512.637 179.008 512.398 178.965 512.094 178.934C511.797 178.895 511.523 178.875 511.273 178.875C510.477 178.875 509.816 179.129 509.293 179.637C508.77 180.137 508.508 180.789 508.508 181.594V189H504.875ZM531.125 171.539H534.805V182.859C534.805 184.133 534.504 185.25 533.902 186.211C533.301 187.164 532.457 187.906 531.371 188.438C530.285 188.969 529.02 189.234 527.574 189.234C526.121 189.234 524.852 188.969 523.766 188.438C522.688 187.906 521.848 187.164 521.246 186.211C520.645 185.25 520.344 184.133 520.344 182.859V171.539H524.023V182.555C524.023 183.555 524.348 184.379 524.996 185.027C525.645 185.668 526.504 185.988 527.574 185.988C528.645 185.988 529.504 185.668 530.152 185.027C530.801 184.379 531.125 183.555 531.125 182.555V171.539ZM537.781 189V175.898H541.227V178.23H541.391C541.664 177.457 542.121 176.848 542.762 176.402C543.402 175.957 544.164 175.734 545.047 175.734C545.945 175.734 546.707 175.961 547.332 176.414C547.965 176.859 548.383 177.465 548.586 178.23H548.727C549 177.473 549.484 176.867 550.18 176.414C550.883 175.961 551.715 175.734 552.676 175.734C553.895 175.734 554.887 176.121 555.652 176.895C556.426 177.668 556.812 178.766 556.812 180.188V189H553.18V180.914C553.18 180.18 552.984 179.633 552.594 179.273C552.211 178.914 551.73 178.734 551.152 178.734C550.496 178.734 549.98 178.945 549.605 179.367C549.238 179.781 549.055 180.328 549.055 181.008V189H545.527V180.82C545.527 180.188 545.344 179.684 544.977 179.309C544.617 178.926 544.141 178.734 543.547 178.734C542.938 178.734 542.43 178.957 542.023 179.402C541.617 179.84 541.414 180.422 541.414 181.148V189H537.781ZM563.457 189.246C562.207 189.246 561.168 188.922 560.34 188.273C559.52 187.617 559.109 186.641 559.109 185.344C559.109 184.367 559.336 183.602 559.789 183.047C560.25 182.484 560.855 182.074 561.605 181.816C562.355 181.551 563.16 181.379 564.02 181.301C565.16 181.191 565.973 181.078 566.457 180.961C566.949 180.836 567.195 180.562 567.195 180.141V180.082C567.195 179.543 567.023 179.125 566.68 178.828C566.336 178.531 565.84 178.383 565.191 178.383C564.543 178.383 564.012 178.523 563.598 178.805C563.191 179.086 562.922 179.445 562.789 179.883L559.484 179.355C559.797 178.215 560.453 177.328 561.453 176.695C562.461 176.055 563.711 175.734 565.203 175.734C566.172 175.734 567.082 175.887 567.934 176.191C568.793 176.496 569.488 176.977 570.02 177.633C570.551 178.281 570.816 179.125 570.816 180.164V189H567.383V187.172H567.277C566.957 187.789 566.48 188.289 565.848 188.672C565.223 189.055 564.426 189.246 563.457 189.246ZM562.566 185.227C562.566 185.727 562.746 186.105 563.105 186.363C563.473 186.613 563.934 186.738 564.488 186.738C565.285 186.738 565.938 186.508 566.445 186.047C566.961 185.586 567.219 185.012 567.219 184.324V182.93C567.078 183.023 566.855 183.109 566.551 183.188C566.254 183.266 565.938 183.332 565.602 183.387C565.266 183.434 564.965 183.477 564.699 183.516C564.059 183.609 563.543 183.793 563.152 184.066C562.762 184.332 562.566 184.719 562.566 185.227ZM580.695 175.898V178.641H578.211V184.969C578.211 185.82 578.625 186.246 579.453 186.246C579.594 186.246 579.746 186.234 579.91 186.211C580.082 186.188 580.23 186.16 580.355 186.129L580.93 188.848C580.156 189.074 579.406 189.188 578.68 189.188C577.383 189.188 576.375 188.859 575.656 188.203C574.945 187.547 574.59 186.629 574.59 185.449V178.641H572.809V175.898H574.59V172.781H578.211V175.898H580.695ZM588.711 189V171.539H592.391V178.746H599.879V171.539H603.57V189H599.879V181.781H592.391V189H588.711ZM606.617 171.539H611.164L615.969 183.27H616.168L620.984 171.539H625.566V189H621.945V177.633H621.816L617.281 188.918H614.832L610.344 177.609H610.191V189H606.617V171.539ZM627.934 174.586V171.539H642.266V174.586H636.945V189H633.266V174.586H627.934ZM644.656 189V171.539H651.641C653.562 171.539 655.008 171.961 655.977 172.805C656.945 173.641 657.43 174.711 657.43 176.016C657.43 177.039 657.129 177.871 656.527 178.512C655.934 179.145 655.184 179.562 654.277 179.766V179.941C654.941 179.973 655.562 180.16 656.141 180.504C656.727 180.848 657.199 181.332 657.559 181.957C657.926 182.574 658.109 183.312 658.109 184.172C658.109 185.094 657.883 185.922 657.43 186.656C656.977 187.383 656.305 187.957 655.414 188.379C654.523 188.793 653.422 189 652.109 189H644.656ZM651.078 178.852C651.828 178.852 652.453 178.652 652.953 178.254C653.453 177.855 653.703 177.312 653.703 176.625C653.703 176 653.48 175.496 653.035 175.113C652.59 174.723 651.961 174.527 651.148 174.527H648.336V178.852H651.078ZM651.348 185.988C652.379 185.988 653.129 185.789 653.598 185.391C654.074 184.992 654.312 184.465 654.312 183.809C654.312 183.09 654.055 182.5 653.539 182.039C653.023 181.57 652.324 181.336 651.441 181.336H648.336V185.988H651.348Z" fill="#FFCC00"/>
</svg>
